<?xml version="1.0" standalone="no"?>
<!DOCTYPE svg PUBLIC "-//W3C//DTD SVG 20010904//EN"
 "http://www.w3.org/TR/2001/REC-SVG-20010904/DTD/svg10.dtd">
<svg version="1.0" xmlns="http://www.w3.org/2000/svg"
 width="134.000000pt" height="134.000000pt" viewBox="0 0 134.000000 134.000000"
 preserveAspectRatio="xMidYMid meet">
<metadata>
Created by potrace 1.11, written by Peter Selinger 2001-2013
</metadata>
<g transform="translate(0.000000,134.000000) scale(0.100000,-0.100000)"
fill="#000000" stroke="none">
<path d="M620 1333 c-8 -3 -114 -62 -235 -131 -232 -132 -297 -183 -308 -242
-4 -18 -7 -152 -7 -299 0 -237 2 -270 19 -306 26 -57 45 -72 251 -190 102 -59
203 -118 225 -133 32 -21 53 -26 105 -26 l65 -1 224 129 c247 143 273 162 301
216 17 33 19 63 20 306 0 148 -2 284 -6 302 -13 66 -66 107 -346 265 -24 14
-75 43 -115 66 -72 42 -154 61 -193 44z m255 -369 c84 -43 128 -159 93 -244
-14 -32 -13 -38 9 -79 55 -105 3 -241 -107 -277 -33 -10 -500 -12 -494 -2 3 5
5 92 5 193 0 167 2 185 17 186 9 0 106 1 215 1 191 1 199 2 212 22 11 17 12
52 1 68 0 1 -100 4 -221 8 l-220 5 -1 70 -2 71 227 -1 c208 0 229 -2 266 -21z"/>
<path d="M549 581 c0 -9 -1 -31 -2 -49 l-2 -32 141 0 c126 0 143 2 158 19 20
22 14 56 -12 70 -9 5 -77 9 -149 8 -115 0 -133 -2 -134 -16z"/>
</g>
</svg>
